<mxfile host="app.diagrams.net" modified="2022-04-22T07:03:25.068Z" agent="5.0 (Windows)" etag="4NJxAhccei_JsFcCogeE" version="17.4.5" type="github">
  <diagram id="xw_byUrj16BB7TkkrvX_" name="Page-1">
    <mxGraphModel dx="1727" dy="951" grid="1" gridSize="10" guides="1" tooltips="1" connect="1" arrows="1" fold="1" page="1" pageScale="1" pageWidth="1654" pageHeight="2336" math="0" shadow="0">
      <root>
        <mxCell id="0" />
        <mxCell id="1" parent="0" />
        <mxCell id="i8duVv4L2k43WplE86WF-27" value="" style="rounded=0;whiteSpace=wrap;html=1;fontFamily=Helvetica;fontSize=8;strokeColor=#000000;strokeWidth=1;fillColor=default;gradientColor=none;" vertex="1" parent="1">
          <mxGeometry x="1960" width="160" height="100" as="geometry" />
        </mxCell>
        <mxCell id="i8duVv4L2k43WplE86WF-3" value="" style="rounded=0;whiteSpace=wrap;html=1;" vertex="1" parent="1">
          <mxGeometry x="2140" width="200" height="180" as="geometry" />
        </mxCell>
        <mxCell id="i8duVv4L2k43WplE86WF-2" value="EVR-230" style="rounded=0;whiteSpace=wrap;html=1;" vertex="1" parent="1">
          <mxGeometry x="2160" y="20" width="160" height="40" as="geometry" />
        </mxCell>
        <mxCell id="i8duVv4L2k43WplE86WF-5" value="FOUT" style="rounded=0;whiteSpace=wrap;html=1;" vertex="1" parent="1">
          <mxGeometry x="2160" y="125" width="160" height="40" as="geometry" />
        </mxCell>
        <mxCell id="i8duVv4L2k43WplE86WF-6" value="" style="endArrow=classic;html=1;rounded=0;exitX=0.904;exitY=1;exitDx=0;exitDy=0;entryX=0.5;entryY=0;entryDx=0;entryDy=0;exitPerimeter=0;" edge="1" parent="1" source="i8duVv4L2k43WplE86WF-9" target="i8duVv4L2k43WplE86WF-8">
          <mxGeometry width="50" height="50" relative="1" as="geometry">
            <mxPoint x="2030" y="110" as="sourcePoint" />
            <mxPoint x="2050" y="120" as="targetPoint" />
          </mxGeometry>
        </mxCell>
        <mxCell id="i8duVv4L2k43WplE86WF-8" value="" style="ellipse;whiteSpace=wrap;html=1;aspect=fixed;fillColor=#d5e8d4;strokeColor=#82b366;" vertex="1" parent="1">
          <mxGeometry x="2300" y="141" width="10" height="10" as="geometry" />
        </mxCell>
        <mxCell id="i8duVv4L2k43WplE86WF-9" value="EVG-230" style="rounded=0;whiteSpace=wrap;html=1;" vertex="1" parent="1">
          <mxGeometry x="2160" y="73" width="160" height="40" as="geometry" />
        </mxCell>
        <mxCell id="i8duVv4L2k43WplE86WF-10" value="" style="ellipse;whiteSpace=wrap;html=1;aspect=fixed;fillColor=#d5e8d4;strokeColor=#82b366;" vertex="1" parent="1">
          <mxGeometry x="2170" y="141" width="10" height="10" as="geometry" />
        </mxCell>
        <mxCell id="i8duVv4L2k43WplE86WF-11" value="" style="ellipse;whiteSpace=wrap;html=1;aspect=fixed;fillColor=#d5e8d4;strokeColor=#82b366;" vertex="1" parent="1">
          <mxGeometry x="2195" y="141" width="10" height="10" as="geometry" />
        </mxCell>
        <mxCell id="i8duVv4L2k43WplE86WF-12" value="" style="endArrow=classic;html=1;rounded=0;exitX=0.5;exitY=0;exitDx=0;exitDy=0;entryX=0.25;entryY=1;entryDx=0;entryDy=0;" edge="1" parent="1" source="i8duVv4L2k43WplE86WF-11" target="i8duVv4L2k43WplE86WF-2">
          <mxGeometry width="50" height="50" relative="1" as="geometry">
            <mxPoint x="2270" y="130" as="sourcePoint" />
            <mxPoint x="2320" y="80" as="targetPoint" />
          </mxGeometry>
        </mxCell>
        <mxCell id="i8duVv4L2k43WplE86WF-13" value="开发板" style="rounded=0;whiteSpace=wrap;html=1;" vertex="1" parent="1">
          <mxGeometry x="1960" y="131" width="160" height="30" as="geometry" />
        </mxCell>
        <mxCell id="i8duVv4L2k43WplE86WF-17" value="In" style="text;html=1;strokeColor=none;fillColor=none;align=center;verticalAlign=middle;whiteSpace=wrap;rounded=0;fontSize=8;" vertex="1" parent="1">
          <mxGeometry x="2300" y="150.5" width="10" height="15" as="geometry" />
        </mxCell>
        <mxCell id="i8duVv4L2k43WplE86WF-18" value="OUT1" style="text;html=1;strokeColor=none;fillColor=none;align=center;verticalAlign=middle;whiteSpace=wrap;rounded=0;strokeWidth=0;fontSize=8;fontFamily=Helvetica;" vertex="1" parent="1">
          <mxGeometry x="2165" y="153" width="20" height="10" as="geometry" />
        </mxCell>
        <mxCell id="i8duVv4L2k43WplE86WF-19" value="OUT2" style="text;html=1;strokeColor=none;fillColor=none;align=center;verticalAlign=middle;whiteSpace=wrap;rounded=0;strokeWidth=0;fontSize=8;" vertex="1" parent="1">
          <mxGeometry x="2190" y="153" width="20" height="10" as="geometry" />
        </mxCell>
        <mxCell id="i8duVv4L2k43WplE86WF-25" value="" style="pointerEvents=1;verticalLabelPosition=bottom;shadow=0;dashed=0;align=center;html=1;verticalAlign=top;shape=mxgraph.electrical.signal_sources.source;aspect=fixed;points=[[0.5,0,0],[1,0.5,0],[0.5,1,0],[0,0.5,0]];elSignalType=square;fontFamily=Helvetica;fontSize=8;strokeColor=#000000;strokeWidth=1;fillColor=default;gradientColor=none;" vertex="1" parent="1">
          <mxGeometry x="1970" y="15" width="70" height="70" as="geometry" />
        </mxCell>
        <mxCell id="i8duVv4L2k43WplE86WF-26" value="" style="endArrow=classic;html=1;rounded=0;fontFamily=Helvetica;fontSize=8;entryX=0.5;entryY=1;entryDx=0;entryDy=0;" edge="1" parent="1" source="i8duVv4L2k43WplE86WF-13" target="i8duVv4L2k43WplE86WF-27">
          <mxGeometry width="50" height="50" relative="1" as="geometry">
            <mxPoint x="1960" y="100" as="sourcePoint" />
            <mxPoint x="2010" y="50" as="targetPoint" />
          </mxGeometry>
        </mxCell>
        <mxCell id="i8duVv4L2k43WplE86WF-28" value="&lt;font style=&quot;font-size: 12px&quot;&gt;ILA&lt;/font&gt;" style="rounded=0;whiteSpace=wrap;html=1;fontFamily=Helvetica;fontSize=8;strokeColor=#000000;strokeWidth=1;fillColor=default;gradientColor=none;" vertex="1" parent="1">
          <mxGeometry x="2050" y="20" width="60" height="65" as="geometry" />
        </mxCell>
        <mxCell id="i8duVv4L2k43WplE86WF-29" value="" style="endArrow=classic;html=1;rounded=0;exitX=0;exitY=0.5;exitDx=0;exitDy=0;entryX=1;entryY=0.5;entryDx=0;entryDy=0;" edge="1" parent="1" source="i8duVv4L2k43WplE86WF-10" target="i8duVv4L2k43WplE86WF-13">
          <mxGeometry width="50" height="50" relative="1" as="geometry">
            <mxPoint x="1940" y="70" as="sourcePoint" />
            <mxPoint x="2120" y="160" as="targetPoint" />
          </mxGeometry>
        </mxCell>
        <mxCell id="i8duVv4L2k43WplE86WF-31" value="" style="pointerEvents=1;verticalLabelPosition=bottom;shadow=0;dashed=0;align=center;html=1;verticalAlign=top;shape=mxgraph.electrical.waveforms.square_wave;fontFamily=Helvetica;fontSize=12;strokeColor=#000000;strokeWidth=1;fillColor=default;gradientColor=none;" vertex="1" parent="1">
          <mxGeometry x="430" y="650" width="90" height="80" as="geometry" />
        </mxCell>
        <mxCell id="i8duVv4L2k43WplE86WF-32" value="" style="pointerEvents=1;verticalLabelPosition=bottom;shadow=0;dashed=0;align=center;html=1;verticalAlign=top;shape=mxgraph.electrical.waveforms.square_wave;fontFamily=Helvetica;fontSize=12;strokeColor=#000000;strokeWidth=1;fillColor=default;gradientColor=none;" vertex="1" parent="1">
          <mxGeometry x="520" y="650" width="90" height="80" as="geometry" />
        </mxCell>
        <mxCell id="i8duVv4L2k43WplE86WF-33" value="" style="pointerEvents=1;verticalLabelPosition=bottom;shadow=0;dashed=0;align=center;html=1;verticalAlign=top;shape=mxgraph.electrical.waveforms.square_wave;fontFamily=Helvetica;fontSize=12;strokeColor=#000000;strokeWidth=1;fillColor=default;gradientColor=none;" vertex="1" parent="1">
          <mxGeometry x="610" y="650" width="90" height="80" as="geometry" />
        </mxCell>
        <mxCell id="i8duVv4L2k43WplE86WF-34" value="" style="pointerEvents=1;verticalLabelPosition=bottom;shadow=0;dashed=0;align=center;html=1;verticalAlign=top;shape=mxgraph.electrical.waveforms.square_wave;fontFamily=Helvetica;fontSize=12;strokeColor=#000000;strokeWidth=1;fillColor=default;gradientColor=none;" vertex="1" parent="1">
          <mxGeometry x="700" y="650" width="90" height="80" as="geometry" />
        </mxCell>
        <mxCell id="i8duVv4L2k43WplE86WF-35" value="" style="pointerEvents=1;verticalLabelPosition=bottom;shadow=0;dashed=0;align=center;html=1;verticalAlign=top;shape=mxgraph.electrical.waveforms.square_wave;fontFamily=Helvetica;fontSize=12;strokeColor=#000000;strokeWidth=1;fillColor=default;gradientColor=none;" vertex="1" parent="1">
          <mxGeometry x="790" y="650" width="90" height="80" as="geometry" />
        </mxCell>
        <mxCell id="i8duVv4L2k43WplE86WF-36" value="" style="pointerEvents=1;verticalLabelPosition=bottom;shadow=0;dashed=0;align=center;html=1;verticalAlign=top;shape=mxgraph.electrical.waveforms.square_wave;fontFamily=Helvetica;fontSize=12;strokeColor=#000000;strokeWidth=1;fillColor=default;gradientColor=none;" vertex="1" parent="1">
          <mxGeometry x="880" y="650" width="90" height="80" as="geometry" />
        </mxCell>
        <mxCell id="i8duVv4L2k43WplE86WF-37" value="" style="pointerEvents=1;verticalLabelPosition=bottom;shadow=0;dashed=0;align=center;html=1;verticalAlign=top;shape=mxgraph.electrical.waveforms.square_wave;fontFamily=Helvetica;fontSize=12;strokeColor=#000000;strokeWidth=1;fillColor=default;gradientColor=none;" vertex="1" parent="1">
          <mxGeometry x="565" y="770" width="710" height="80" as="geometry" />
        </mxCell>
        <mxCell id="i8duVv4L2k43WplE86WF-38" value="" style="endArrow=classic;startArrow=classic;html=1;rounded=0;fontFamily=Helvetica;fontSize=12;" edge="1" parent="1">
          <mxGeometry width="50" height="50" relative="1" as="geometry">
            <mxPoint x="430" y="560" as="sourcePoint" />
            <mxPoint x="1140" y="560" as="targetPoint" />
          </mxGeometry>
        </mxCell>
        <mxCell id="i8duVv4L2k43WplE86WF-40" value="" style="pointerEvents=1;verticalLabelPosition=bottom;shadow=0;dashed=0;align=center;html=1;verticalAlign=top;shape=mxgraph.electrical.waveforms.square_wave;fontFamily=Helvetica;fontSize=12;strokeColor=#000000;strokeWidth=1;fillColor=default;gradientColor=none;" vertex="1" parent="1">
          <mxGeometry x="1050" y="650" width="90" height="80" as="geometry" />
        </mxCell>
        <mxCell id="i8duVv4L2k43WplE86WF-41" value="20" style="text;html=1;strokeColor=none;fillColor=none;align=center;verticalAlign=middle;whiteSpace=wrap;rounded=0;fontFamily=Helvetica;fontSize=12;" vertex="1" parent="1">
          <mxGeometry x="740" y="520" width="60" height="30" as="geometry" />
        </mxCell>
        <mxCell id="i8duVv4L2k43WplE86WF-42" value="" style="endArrow=none;html=1;rounded=0;fontFamily=Helvetica;fontSize=12;exitX=-0.011;exitY=1;exitDx=0;exitDy=0;exitPerimeter=0;" edge="1" parent="1" source="i8duVv4L2k43WplE86WF-31">
          <mxGeometry width="50" height="50" relative="1" as="geometry">
            <mxPoint x="840" y="690" as="sourcePoint" />
            <mxPoint x="430" y="460" as="targetPoint" />
          </mxGeometry>
        </mxCell>
        <mxCell id="i8duVv4L2k43WplE86WF-43" value="" style="endArrow=none;html=1;rounded=0;fontFamily=Helvetica;fontSize=12;exitX=1.011;exitY=0.963;exitDx=0;exitDy=0;exitPerimeter=0;" edge="1" parent="1" source="i8duVv4L2k43WplE86WF-40">
          <mxGeometry width="50" height="50" relative="1" as="geometry">
            <mxPoint x="840" y="690" as="sourcePoint" />
            <mxPoint x="1141" y="440" as="targetPoint" />
          </mxGeometry>
        </mxCell>
        <mxCell id="i8duVv4L2k43WplE86WF-44" value="" style="pointerEvents=1;verticalLabelPosition=bottom;shadow=0;dashed=0;align=center;html=1;verticalAlign=top;shape=mxgraph.electrical.waveforms.square_wave;fontFamily=Helvetica;fontSize=12;strokeColor=#000000;strokeWidth=1;fillColor=default;gradientColor=none;" vertex="1" parent="1">
          <mxGeometry x="1275" y="770" width="710" height="80" as="geometry" />
        </mxCell>
        <mxCell id="i8duVv4L2k43WplE86WF-45" value="" style="pointerEvents=1;verticalLabelPosition=bottom;shadow=0;dashed=0;align=center;html=1;verticalAlign=top;shape=mxgraph.electrical.waveforms.square_wave;fontFamily=Helvetica;fontSize=12;strokeColor=#000000;strokeWidth=1;fillColor=default;gradientColor=none;" vertex="1" parent="1">
          <mxGeometry x="565" y="770" width="710" height="80" as="geometry" />
        </mxCell>
        <mxCell id="i8duVv4L2k43WplE86WF-46" value="" style="pointerEvents=1;verticalLabelPosition=bottom;shadow=0;dashed=0;align=center;html=1;verticalAlign=top;shape=mxgraph.electrical.waveforms.square_wave;fontFamily=Helvetica;fontSize=12;strokeColor=#000000;strokeWidth=1;fillColor=default;gradientColor=none;" vertex="1" parent="1">
          <mxGeometry x="565" y="770" width="710" height="80" as="geometry" />
        </mxCell>
        <mxCell id="i8duVv4L2k43WplE86WF-48" value="" style="pointerEvents=1;verticalLabelPosition=bottom;shadow=0;dashed=0;align=center;html=1;verticalAlign=top;shape=mxgraph.electrical.waveforms.square_wave;fontFamily=Helvetica;fontSize=12;strokeColor=#000000;strokeWidth=1;fillColor=default;gradientColor=none;" vertex="1" parent="1">
          <mxGeometry x="565" y="770" width="710" height="80" as="geometry" />
        </mxCell>
        <mxCell id="i8duVv4L2k43WplE86WF-49" value="" style="pointerEvents=1;verticalLabelPosition=bottom;shadow=0;dashed=0;align=center;html=1;verticalAlign=top;shape=mxgraph.electrical.waveforms.square_wave;fontFamily=Helvetica;fontSize=12;strokeColor=#000000;strokeWidth=1;fillColor=default;gradientColor=none;" vertex="1" parent="1">
          <mxGeometry x="1140" y="650" width="90" height="80" as="geometry" />
        </mxCell>
        <mxCell id="i8duVv4L2k43WplE86WF-50" value="" style="pointerEvents=1;verticalLabelPosition=bottom;shadow=0;dashed=0;align=center;html=1;verticalAlign=top;shape=mxgraph.electrical.waveforms.square_wave;fontFamily=Helvetica;fontSize=12;strokeColor=#000000;strokeWidth=1;fillColor=default;gradientColor=none;" vertex="1" parent="1">
          <mxGeometry x="1230" y="650" width="90" height="80" as="geometry" />
        </mxCell>
        <mxCell id="i8duVv4L2k43WplE86WF-54" value="" style="pointerEvents=1;verticalLabelPosition=bottom;shadow=0;dashed=0;align=center;html=1;verticalAlign=top;shape=mxgraph.electrical.waveforms.square_wave;fontFamily=Helvetica;fontSize=12;strokeColor=#000000;strokeWidth=1;fillColor=default;gradientColor=none;" vertex="1" parent="1">
          <mxGeometry x="1320" y="650" width="90" height="80" as="geometry" />
        </mxCell>
        <mxCell id="i8duVv4L2k43WplE86WF-55" value="" style="pointerEvents=1;verticalLabelPosition=bottom;shadow=0;dashed=0;align=center;html=1;verticalAlign=top;shape=mxgraph.electrical.waveforms.square_wave;fontFamily=Helvetica;fontSize=12;strokeColor=#000000;strokeWidth=1;fillColor=default;gradientColor=none;" vertex="1" parent="1">
          <mxGeometry x="1410" y="650" width="90" height="80" as="geometry" />
        </mxCell>
        <mxCell id="i8duVv4L2k43WplE86WF-56" value="" style="pointerEvents=1;verticalLabelPosition=bottom;shadow=0;dashed=0;align=center;html=1;verticalAlign=top;shape=mxgraph.electrical.waveforms.square_wave;fontFamily=Helvetica;fontSize=12;strokeColor=#000000;strokeWidth=1;fillColor=default;gradientColor=none;" vertex="1" parent="1">
          <mxGeometry x="1500" y="650" width="90" height="80" as="geometry" />
        </mxCell>
        <mxCell id="i8duVv4L2k43WplE86WF-57" value="" style="pointerEvents=1;verticalLabelPosition=bottom;shadow=0;dashed=0;align=center;html=1;verticalAlign=top;shape=mxgraph.electrical.waveforms.square_wave;fontFamily=Helvetica;fontSize=12;strokeColor=#000000;strokeWidth=1;fillColor=default;gradientColor=none;" vertex="1" parent="1">
          <mxGeometry x="1590" y="650" width="90" height="80" as="geometry" />
        </mxCell>
        <mxCell id="i8duVv4L2k43WplE86WF-59" value="" style="pointerEvents=1;verticalLabelPosition=bottom;shadow=0;dashed=0;align=center;html=1;verticalAlign=top;shape=mxgraph.electrical.waveforms.square_wave;fontFamily=Helvetica;fontSize=12;strokeColor=#000000;strokeWidth=1;fillColor=default;gradientColor=none;" vertex="1" parent="1">
          <mxGeometry x="1760" y="650" width="90" height="80" as="geometry" />
        </mxCell>
        <mxCell id="i8duVv4L2k43WplE86WF-60" value="" style="endArrow=none;html=1;rounded=0;fontFamily=Helvetica;fontSize=12;exitX=0.986;exitY=0.97;exitDx=0;exitDy=0;exitPerimeter=0;" edge="1" parent="1" source="i8duVv4L2k43WplE86WF-59">
          <mxGeometry width="50" height="50" relative="1" as="geometry">
            <mxPoint x="1150" y="580" as="sourcePoint" />
            <mxPoint x="1849" y="460" as="targetPoint" />
          </mxGeometry>
        </mxCell>
        <mxCell id="i8duVv4L2k43WplE86WF-61" value="" style="endArrow=classic;startArrow=classic;html=1;rounded=0;fontFamily=Helvetica;fontSize=12;" edge="1" parent="1">
          <mxGeometry width="50" height="50" relative="1" as="geometry">
            <mxPoint x="1140" y="534.2900000000002" as="sourcePoint" />
            <mxPoint x="1850" y="534.2900000000002" as="targetPoint" />
          </mxGeometry>
        </mxCell>
        <mxCell id="i8duVv4L2k43WplE86WF-63" value="20" style="text;html=1;strokeColor=none;fillColor=none;align=center;verticalAlign=middle;whiteSpace=wrap;rounded=0;fontFamily=Helvetica;fontSize=12;" vertex="1" parent="1">
          <mxGeometry x="1515" y="490" width="60" height="30" as="geometry" />
        </mxCell>
        <mxCell id="i8duVv4L2k43WplE86WF-64" value="&lt;div&gt;对齐的数据&lt;/div&gt;&lt;div&gt;20bit&lt;br&gt;&lt;/div&gt;" style="text;html=1;strokeColor=none;fillColor=none;align=center;verticalAlign=middle;whiteSpace=wrap;rounded=0;fontFamily=Helvetica;fontSize=26;strokeWidth=5;" vertex="1" parent="1">
          <mxGeometry x="190" y="580" width="200" height="150" as="geometry" />
        </mxCell>
        <mxCell id="i8duVv4L2k43WplE86WF-65" value="恢复时钟" style="text;html=1;strokeColor=none;fillColor=none;align=center;verticalAlign=middle;whiteSpace=wrap;rounded=0;fontFamily=Helvetica;fontSize=26;" vertex="1" parent="1">
          <mxGeometry x="235" y="770" width="110" height="55" as="geometry" />
        </mxCell>
      </root>
    </mxGraphModel>
  </diagram>
</mxfile>
